<svg width="14" height="16" viewBox="0 0 14 16" fill="none" xmlns="http://www.w3.org/2000/svg">
<path fill-rule="evenodd" clip-rule="evenodd" d="M2.36443 1.64568C3.13802 0.872097 4.18723 0.4375 5.28125 0.4375H8.375C8.9167 0.4375 9.4531 0.544196 9.95357 0.751497C10.454 0.958798 10.9088 1.26264 11.2918 1.64568C11.6749 2.02873 11.9787 2.48346 12.186 2.98393C12.3933 3.4844 12.5 4.0208 12.5 4.5625C12.5 4.9422 12.1922 5.25 11.8125 5.25C11.4328 5.25 11.125 4.9422 11.125 4.5625C11.125 4.20136 11.0539 3.84377 10.9157 3.51012C10.7775 3.17648 10.5749 2.87332 10.3195 2.61796C10.0642 2.3626 9.76102 2.16003 9.42738 2.02183C9.09373 1.88363 8.73614 1.8125 8.375 1.8125H5.28125C4.5519 1.8125 3.85243 2.10223 3.33671 2.61796C2.82098 3.13368 2.53125 3.83315 2.53125 4.5625C2.53125 5.29185 2.82098 5.99132 3.33671 6.50704C3.85243 7.02277 4.5519 7.3125 5.28125 7.3125H9.0625C10.1565 7.3125 11.2057 7.7471 11.9793 8.52068C12.7529 9.29427 13.1875 10.3435 13.1875 11.4375C13.1875 12.5315 12.7529 13.5807 11.9793 14.3543C11.2057 15.1279 10.1565 15.5625 9.0625 15.5625H4.9375C3.84348 15.5625 2.79427 15.1279 2.02068 14.3543C1.2471 13.5807 0.8125 12.5315 0.8125 11.4375C0.8125 11.0578 1.1203 10.75 1.5 10.75C1.8797 10.75 2.1875 11.0578 2.1875 11.4375C2.1875 12.1668 2.47723 12.8663 2.99296 13.382C3.50868 13.8978 4.20815 14.1875 4.9375 14.1875H9.0625C9.79185 14.1875 10.4913 13.8978 11.007 13.382C11.5228 12.8663 11.8125 12.1668 11.8125 11.4375C11.8125 10.7082 11.5228 10.0087 11.007 9.49296C10.4913 8.97723 9.79185 8.6875 9.0625 8.6875H5.28125C4.18723 8.6875 3.13802 8.2529 2.36443 7.47932C1.59085 6.70573 1.15625 5.65652 1.15625 4.5625C1.15625 3.46848 1.59085 2.41927 2.36443 1.64568Z" fill="#8047F8"/>
</svg>
